// converted at http://typeface.neocracy.org
vector_battle = {"glyphs":{"S":{"x_min":65,"x_max":980,"ha":1045,"o":"m 963 17 l 963 716 l 65 716 l 65 1305 l 980 1305 l 980 1288 l 81 1288 l 81 733 l 980 733 l 980 0 l 65 0 l 65 17 l 963 17 "},"¦":{"x_min":0,"x_max":0,"ha":1361},"/":{"x_min":65.125,"x_max":980.296875,"ha":1045,"o":"m 81 0 l 65 0 l 963 1305 l 980 1305 l 81 0 "},"y":{"x_min":65.375,"x_max":980.546875,"ha":1046,"o":"m 958 1305 l 980 1305 l 528 716 l 528 0 l 512 0 l 512 716 l 65 1305 l 87 1305 l 519 738 l 958 1305 "},"Á":{"x_min":0,"x_max":0,"ha":1361},"g":{"x_min":65,"x_max":980,"ha":1045,"o":"m 980 1305 l 980 1132 l 963 1132 l 963 1288 l 81 1288 l 81 17 l 963 17 l 963 716 l 292 716 l 292 733 l 980 733 l 980 0 l 65 0 l 65 1305 l 980 1305 "},"²":{"x_min":0,"x_max":0,"ha":1361},"–":{"x_min":0,"x_max":0,"ha":1361},"ë":{"x_min":0,"x_max":0,"ha":1361},"ƒ":{"x_min":0,"x_max":0,"ha":1361},"Î":{"x_min":45.1875,"x_max":1008.875,"ha":1045,"o":"m 271 46 l 414 159 l 759 35 l 972 347 l 691 555 l 958 677 l 760 844 l 511 683 l 293 854 l 83 665 l 174 475 l 81 226 l 271 46 m 263 6 l 45 226 l 141 466 l 47 669 l 292 883 l 506 717 l 763 875 l 1005 677 l 739 547 l 1008 352 l 760 6 l 414 130 l 263 6 "},"e":{"x_min":65,"x_max":980.15625,"ha":1045,"o":"m 81 716 l 81 17 l 980 17 l 980 0 l 65 0 l 65 1305 l 980 1305 l 980 1288 l 81 1288 l 81 733 l 980 733 l 980 716 l 81 716 "},"Ã":{"x_min":0,"x_max":0,"ha":1361},"J":{"x_min":65.453125,"x_max":980.609375,"ha":1046,"o":"m 534 1288 l 534 1305 l 980 1305 l 980 0 l 494 0 l 65 437 l 87 437 l 498 17 l 964 17 l 964 1288 l 534 1288 "},"»":{"x_min":261.1875,"x_max":863.984375,"ha":1045,"o":"m 457 1038 l 476 1038 l 863 724 l 476 408 l 457 408 l 845 724 l 457 1038 m 261 1038 l 280 1038 l 668 724 l 280 408 l 261 408 l 649 724 l 261 1038 "},"‐":{"x_min":65,"x_max":980,"ha":1045,"o":"m 65 733 l 980 733 l 980 717 l 65 717 l 65 733 "},"©":{"x_min":128,"x_max":914,"ha":1045,"o":"m 128 350 l 128 1054 l 522 1110 l 914 1054 l 914 350 l 522 297 l 128 350 m 898 364 l 898 1043 l 522 1095 l 144 1043 l 144 364 l 522 313 l 898 364 m 759 502 l 759 487 l 291 487 l 291 944 l 759 944 l 759 931 l 310 931 l 310 502 l 759 502 "},"ò":{"x_min":0,"x_max":0,"ha":1361},"^":{"x_min":215,"x_max":832,"ha":1045,"o":"m 832 888 l 525 1285 l 215 888 l 215 907 l 525 1305 l 832 907 l 832 888 "},"«":{"x_min":261.1875,"x_max":863.984375,"ha":1045,"o":"m 863 1038 l 476 724 l 863 408 l 845 408 l 457 724 l 845 1038 l 863 1038 m 668 1038 l 280 724 l 668 408 l 649 408 l 261 724 l 649 1038 l 668 1038 "},"D":{"x_min":65,"x_max":980,"ha":1045,"o":"m 65 0 l 65 1305 l 552 1305 l 980 869 l 980 434 l 554 0 l 65 0 m 963 863 l 546 1288 l 81 1288 l 81 17 l 548 17 l 963 440 l 963 863 "},"∙":{"x_min":0,"x_max":0,"ha":1361},"ÿ":{"x_min":0,"x_max":0,"ha":1361},"í":{"x_min":0,"x_max":0,"ha":1361},"ˆ":{"x_min":215,"x_max":832,"ha":1045,"o":"m 832 888 l 525 1285 l 215 888 l 215 907 l 525 1305 l 832 907 l 832 888 "},"w":{"x_min":65,"x_max":980,"ha":1045,"o":"m 525 596 l 963 21 l 963 1304 l 980 1304 l 980 -1 l 963 -1 l 525 570 l 81 0 l 65 0 l 65 1305 l 81 1305 l 81 22 l 525 596 "},"$":{"x_min":64.84375,"x_max":980,"ha":1045,"o":"m 511 1288 l 81 1288 l 81 733 l 511 733 l 511 1288 m 528 17 l 963 17 l 963 716 l 528 716 l 528 17 m 980 0 l 64 0 l 64 17 l 511 17 l 511 716 l 65 716 l 65 1305 l 980 1305 l 980 1288 l 528 1288 l 528 733 l 980 733 l 980 0 "},"\\":{"x_min":65.125,"x_max":980.296875,"ha":1045,"o":"m 65 1305 l 81 1305 l 980 0 l 963 0 l 65 1305 "},"Ì":{"x_min":72,"x_max":1026.453125,"ha":1046,"o":"m 166 852 l 335 686 l 494 1092 l 835 963 l 1026 545 l 775 282 l 839 126 l 518 2 l 422 373 l 214 119 l 72 180 l 72 563 l 166 852 m 344 651 l 171 810 l 94 545 l 94 198 l 215 145 l 432 414 l 536 33 l 807 137 l 749 288 l 997 541 l 822 936 l 510 1062 l 344 651 "},"µ":{"x_min":0,"x_max":0,"ha":1361},"Ç":{"x_min":13.296875,"x_max":1020.828125,"ha":1045,"o":"m 718 381 l 646 525 l 419 525 l 336 381 l 718 381 m 978 236 l 745 360 l 307 360 l 58 236 l 978 236 m 250 21 l 786 21 l 978 216 l 58 216 l 250 21 m 1020 233 l 796 3 l 237 3 l 13 233 l 307 381 l 406 545 l 658 545 l 745 381 l 1020 233 "},"’":{"x_min":0,"x_max":0,"ha":1361},"-":{"x_min":65,"x_max":980,"ha":1045,"o":"m 65 733 l 980 733 l 980 717 l 65 717 l 65 733 "},"Q":{"x_min":65,"x_max":980,"ha":1045,"o":"m 808 174 l 963 333 l 963 1288 l 81 1288 l 81 17 l 653 17 l 799 166 l 595 374 l 595 391 l 808 174 m 980 0 l 963 0 l 808 158 l 653 0 l 65 0 l 65 1305 l 980 1305 l 980 333 l 816 166 l 980 0 "},"M":{"x_min":65,"x_max":980,"ha":1045,"o":"m 519 716 l 81 1288 l 81 0 l 65 0 l 65 1305 l 86 1305 l 519 738 l 958 1305 l 980 1305 l 980 0 l 963 0 l 963 1288 l 519 716 "},"C":{"x_min":65,"x_max":980.15625,"ha":1045,"o":"m 81 17 l 980 17 l 980 0 l 65 0 l 65 1305 l 980 1305 l 980 1288 l 81 1288 l 81 17 "},"œ":{"x_min":0,"x_max":0,"ha":1361},"!":{"x_min":397,"x_max":653,"ha":1045,"o":"m 413 197 l 413 17 l 636 17 l 636 197 l 413 197 m 397 216 l 653 216 l 653 0 l 397 0 l 397 216 m 530 334 l 514 334 l 514 1305 l 530 1305 l 530 334 "},"ç":{"x_min":0,"x_max":0,"ha":1361},"È":{"x_min":21.859375,"x_max":1010.125,"ha":1045,"o":"m 549 272 l 654 245 l 943 245 l 943 272 l 549 272 m 976 145 l 308 315 l 259 230 l 47 184 l 150 21 l 854 21 l 976 145 m 1010 152 l 859 0 l 144 0 l 21 197 l 240 243 l 296 340 l 498 289 l 959 289 l 959 229 l 714 229 l 1010 152 "},"{":{"x_min":196,"x_max":849.34375,"ha":1045,"o":"m 212 17 l 849 17 l 849 0 l 196 0 l 196 1305 l 849 1305 l 849 1288 l 212 1288 l 212 17 "},"X":{"x_min":65.125,"x_max":980.296875,"ha":1045,"o":"m 958 0 l 519 696 l 87 0 l 65 0 q 152 139 93 44 l 455 625 q 511 716 509 710 l 65 1305 l 87 1305 l 519 735 l 958 1305 l 980 1305 l 528 716 l 980 0 l 958 0 "},"ô":{"x_min":0,"x_max":0,"ha":1361},"¼":{"x_min":0,"x_max":0,"ha":1361},"#":{"x_min":109,"x_max":926,"ha":1046,"o":"m 316 517 l 718 517 l 718 802 l 316 802 l 316 517 m 718 500 l 316 500 l 316 200 l 300 200 l 300 500 l 109 500 l 109 517 l 300 517 l 300 802 l 109 802 l 109 819 l 300 819 l 300 1105 l 316 1105 l 316 819 l 718 819 l 718 1105 l 735 1105 l 735 819 l 926 819 l 926 802 l 735 802 l 735 517 l 926 517 l 926 500 l 735 500 l 735 200 l 718 200 l 718 500 "},"Ê":{"x_min":31,"x_max":1019.3125,"ha":1045,"o":"m 435 736 l 1014 736 l 1014 575 l 687 486 l 1019 260 l 792 30 l 686 139 l 291 28 l 31 379 l 31 729 l 294 970 l 679 970 l 435 736 m 995 719 l 392 719 l 632 950 l 298 950 l 55 723 l 55 383 l 301 51 l 690 160 l 793 57 l 988 255 l 649 494 l 995 586 l 995 719 "},")":{"x_min":196.3125,"x_max":849.609375,"ha":1046,"o":"m 833 1288 l 196 1288 l 196 1305 l 849 1305 l 849 0 l 196 0 l 196 17 l 833 17 l 833 1288 "},"Å":{"x_min":197.390625,"x_max":862.65625,"ha":1045,"o":"m 826 59 l 532 925 l 231 59 l 310 165 l 751 165 l 826 59 m 546 933 l 862 0 l 852 0 l 743 148 l 318 148 l 208 0 l 197 0 l 532 971 l 546 933 "},"ø":{"x_min":0,"x_max":0,"ha":1361},"â":{"x_min":0,"x_max":0,"ha":1361},"}":{"x_min":196.3125,"x_max":849.609375,"ha":1046,"o":"m 833 1288 l 196 1288 l 196 1305 l 849 1305 l 849 0 l 196 0 l 196 17 l 833 17 l 833 1288 "},"‰":{"x_min":0,"x_max":0,"ha":1361},"Ä":{"x_min":65,"x_max":980,"ha":1045,"o":"m 81 994 l 81 733 l 963 733 l 963 994 l 522 1289 l 81 994 m 980 0 l 963 0 l 963 716 l 81 716 l 81 0 l 65 0 l 65 1000 l 522 1305 l 980 1000 l 980 0 m 731 1525 l 980 1525 l 980 1508 l 731 1508 l 731 1525 m 65 1525 l 314 1525 l 314 1508 l 65 1508 l 65 1525 "},"¸":{"x_min":0,"x_max":0,"ha":1361},"a":{"x_min":65,"x_max":980,"ha":1045,"o":"m 81 994 l 81 733 l 963 733 l 963 994 l 522 1288 l 81 994 m 980 0 l 963 0 l 963 716 l 81 716 l 81 0 l 65 0 l 65 1000 l 522 1305 l 980 1000 l 980 0 "},"—":{"x_min":0,"x_max":0,"ha":1361},"=":{"x_min":65,"x_max":980,"ha":1045,"o":"m 65 433 l 980 433 l 980 416 l 65 416 l 65 433 m 65 732 l 980 732 l 980 716 l 65 716 l 65 732 "},"N":{"x_min":65,"x_max":980,"ha":1045,"o":"m 980 1305 l 980 0 l 963 0 l 963 66 l 81 1221 l 81 0 l 65 0 l 65 1305 l 81 1305 l 81 1243 l 963 88 l 963 1305 l 980 1305 "},"\u0011":{"x_min":0,"x_max":0,"ha":1361},"ú":{"x_min":0,"x_max":0,"ha":1361},"⁄":{"x_min":0,"x_max":0,"ha":1361},"2":{"x_min":64.84375,"x_max":980.15625,"ha":1045,"o":"m 64 1288 l 64 1305 l 980 1305 l 980 716 l 81 716 l 81 17 l 980 17 l 980 0 l 65 0 l 65 733 l 963 733 l 963 1288 l 64 1288 "},"ü":{"x_min":65,"x_max":980,"ha":1045,"o":"m 963 1305 l 980 1305 l 980 0 l 65 0 l 65 1305 l 81 1305 l 81 17 l 963 17 l 963 1305 m 731 1525 l 980 1525 l 980 1508 l 731 1508 l 731 1525 m 65 1525 l 314 1525 l 314 1508 l 65 1508 l 65 1525 "},"¯":{"x_min":0,"x_max":0,"ha":1361},"Z":{"x_min":65,"x_max":980,"ha":1045,"o":"m 84 17 l 980 17 l 980 0 l 65 0 l 65 22 l 958 1288 l 65 1288 l 65 1305 l 980 1305 l 980 1288 l 84 17 "},"u":{"x_min":65,"x_max":980,"ha":1045,"o":"m 963 1305 l 980 1305 l 980 0 l 65 0 l 65 1305 l 81 1305 l 81 17 l 963 17 l 963 1305 "},"˜":{"x_min":0,"x_max":0,"ha":1361},"Ó":{"x_min":0,"x_max":0,"ha":1361},"k":{"x_min":65,"x_max":980.15625,"ha":1045,"o":"m 955 1305 l 980 1305 l 86 716 l 980 0 l 955 0 l 81 699 l 81 0 l 65 0 l 65 1305 l 81 1305 l 81 732 l 955 1305 "},"Ù":{"x_min":0,"x_max":0,"ha":1361},"Ÿ":{"x_min":0,"x_max":0,"ha":1361},"¢":{"x_min":0,"x_max":0,"ha":1361},"ß":{"x_min":94,"x_max":899,"ha":1046,"o":"m 100 505 l 369 505 l 369 500 l 94 500 l 94 892 l 369 892 l 369 887 l 100 887 l 100 505 m 681 892 l 413 715 l 681 500 l 675 500 l 413 710 l 413 500 l 407 500 l 407 892 l 413 892 l 413 719 l 681 892 m 826 560 l 826 505 l 893 505 l 893 560 l 826 560 m 822 566 l 899 566 l 899 500 l 822 500 l 822 566 m 861 600 l 856 600 l 856 892 l 861 892 l 861 600 "},"é":{"x_min":0,"x_max":0,"ha":1361},"s":{"x_min":65,"x_max":980,"ha":1045,"o":"m 963 17 l 963 716 l 65 716 l 65 1305 l 980 1305 l 980 1288 l 81 1288 l 81 733 l 980 733 l 980 0 l 65 0 l 65 17 l 963 17 "},"B":{"x_min":65,"x_max":980,"ha":1045,"o":"m 65 0 l 65 1305 l 653 1305 l 980 972 l 980 849 l 857 724 l 980 600 l 980 333 l 653 0 l 65 0 m 846 716 l 81 716 l 81 17 l 650 17 l 963 336 l 963 597 l 846 716 m 81 733 l 846 733 l 963 852 l 963 969 l 650 1288 l 81 1288 l 81 733 "},"…":{"x_min":0,"x_max":0,"ha":1361},"?":{"x_min":64.84375,"x_max":980,"ha":1045,"o":"m 530 333 l 514 333 l 514 733 l 963 733 l 963 1288 l 64 1288 l 64 1305 l 980 1305 l 980 716 l 530 716 l 530 333 m 413 197 l 413 17 l 636 17 l 636 197 l 413 197 m 397 216 l 653 216 l 653 0 l 397 0 l 397 216 "},"H":{"x_min":65,"x_max":980,"ha":1045,"o":"m 980 1305 l 980 0 l 963 0 l 963 716 l 81 716 l 81 0 l 65 0 l 65 1305 l 81 1305 l 81 733 l 963 733 l 963 1305 l 980 1305 "},"î":{"x_min":0,"x_max":0,"ha":1361},"c":{"x_min":65,"x_max":980.15625,"ha":1045,"o":"m 81 17 l 980 17 l 980 0 l 65 0 l 65 1305 l 980 1305 l 980 1288 l 81 1288 l 81 17 "},"¶":{"x_min":0,"x_max":0,"ha":1361},"−":{"x_min":0,"x_max":0,"ha":1361},"•":{"x_min":0,"x_max":0,"ha":1361},"¥":{"x_min":0,"x_max":0,"ha":1361},"(":{"x_min":196,"x_max":849.34375,"ha":1045,"o":"m 212 17 l 849 17 l 849 0 l 196 0 l 196 1305 l 849 1305 l 849 1288 l 212 1288 l 212 17 "},"U":{"x_min":65,"x_max":980,"ha":1045,"o":"m 963 1305 l 980 1305 l 980 0 l 65 0 l 65 1305 l 81 1305 l 81 17 l 963 17 l 963 1305 "},"Ñ":{"x_min":0,"x_max":0,"ha":1361},"F":{"x_min":65,"x_max":980.15625,"ha":1045,"o":"m 65 0 l 65 1305 l 980 1305 l 980 1288 l 81 1288 l 81 733 l 980 733 l 980 716 l 81 716 l 81 0 l 65 0 "},"­":{"x_min":0,"x_max":0,"ha":1361},":":{"x_min":441,"x_max":697,"ha":1045,"o":"m 457 714 l 457 533 l 680 533 l 680 714 l 457 714 m 441 733 l 697 733 l 697 516 l 441 516 l 441 733 m 457 197 l 457 17 l 680 17 l 680 197 l 457 197 m 441 216 l 697 216 l 697 0 l 441 0 l 441 216 "},"Û":{"x_min":0,"x_max":0,"ha":1361},"*":{"x_min":294,"x_max":751,"ha":1045,"o":"m 294 716 l 294 733 l 514 733 l 294 1024 l 311 1024 l 517 753 l 517 955 l 534 955 l 534 753 l 733 1024 l 751 1024 l 537 733 l 751 733 l 751 716 l 537 716 l 751 372 l 733 372 l 534 698 l 534 489 l 517 489 l 517 698 l 311 372 l 294 372 l 514 716 l 294 716 "},"†":{"x_min":0,"x_max":0,"ha":1361},"°":{"x_min":0,"x_max":0,"ha":1361},"V":{"x_min":65.125,"x_max":980.296875,"ha":1045,"o":"m 958 1305 l 980 1305 l 528 0 l 511 0 l 65 1305 l 87 1305 l 519 25 l 958 1305 "},"å":{"x_min":0,"x_max":0,"ha":1361}," ":{"x_min":0,"x_max":0,"ha":1361},"0":{"x_min":65,"x_max":980,"ha":1045,"o":"m 65 0 l 65 1305 l 980 1305 l 980 0 l 65 0 m 81 1288 l 81 55 l 963 1288 l 81 1288 m 81 17 l 962 17 l 962 1244 l 81 17 "},"”":{"x_min":0,"x_max":0,"ha":1361},"¾":{"x_min":0,"x_max":0,"ha":1361},"@":{"x_min":128,"x_max":914,"ha":1045,"o":"m 797 706 l 797 823 l 522 955 l 253 823 l 253 706 l 797 706 m 814 363 l 898 363 l 898 1043 l 144 1043 l 144 256 l 914 256 l 914 243 l 128 243 l 128 1055 l 914 1055 l 914 350 l 797 350 l 797 692 l 253 692 l 253 350 l 236 350 l 236 832 l 522 972 l 814 832 l 814 363 "},"ö":{"x_min":65,"x_max":980,"ha":1045,"o":"m 65 0 l 65 1305 l 980 1305 l 980 0 l 65 0 m 963 17 l 963 1288 l 81 1288 l 81 17 l 963 17 m 731 1525 l 980 1525 l 980 1508 l 731 1508 l 731 1525 m 65 1525 l 314 1525 l 314 1508 l 65 1508 l 65 1525 "},"i":{"x_min":65,"x_max":980,"ha":1045,"o":"m 528 1288 l 528 17 l 980 17 l 980 0 l 65 0 l 65 17 l 511 17 l 511 1288 l 65 1288 l 65 1305 l 980 1305 l 980 1288 l 528 1288 "},"Õ":{"x_min":0,"x_max":0,"ha":1361},"þ":{"x_min":0,"x_max":0,"ha":1361},"]":{"x_min":196.3125,"x_max":849.609375,"ha":1046,"o":"m 833 1288 l 196 1288 l 196 1305 l 849 1305 l 849 0 l 196 0 l 196 17 l 833 17 l 833 1288 "},"m":{"x_min":65,"x_max":980,"ha":1045,"o":"m 519 716 l 81 1288 l 81 0 l 65 0 l 65 1305 l 86 1305 l 519 738 l 958 1305 l 980 1305 l 980 0 l 963 0 l 963 1288 l 519 716 "},"8":{"x_min":65,"x_max":980,"ha":1045,"o":"m 65 0 l 65 1305 l 980 1305 l 980 0 l 65 0 m 81 1288 l 81 733 l 963 733 l 963 1288 l 81 1288 m 81 716 l 81 17 l 963 17 l 963 716 l 81 716 "},"R":{"x_min":65,"x_max":980,"ha":1045,"o":"m 963 733 l 963 1288 l 81 1288 l 81 733 l 963 733 m 980 716 l 86 716 l 980 0 l 955 0 l 81 697 l 81 0 l 65 0 l 65 1305 l 980 1305 l 980 716 "},"á":{"x_min":0,"x_max":0,"ha":1361},"×":{"x_min":0,"x_max":0,"ha":1361},"o":{"x_min":65,"x_max":980,"ha":1045,"o":"m 65 0 l 65 1305 l 980 1305 l 980 0 l 65 0 m 963 17 l 963 1288 l 81 1288 l 81 17 l 963 17 "},"5":{"x_min":65,"x_max":980,"ha":1045,"o":"m 963 17 l 963 716 l 65 716 l 65 1305 l 980 1305 l 980 1288 l 81 1288 l 81 733 l 980 733 l 980 0 l 65 0 l 65 17 l 963 17 "},"õ":{"x_min":0,"x_max":0,"ha":1361},"7":{"x_min":65.453125,"x_max":980.609375,"ha":1046,"o":"m 964 0 l 964 1288 l 65 1288 l 65 1305 l 980 1305 l 980 0 l 964 0 "},"K":{"x_min":65,"x_max":980.15625,"ha":1045,"o":"m 955 1305 l 980 1305 l 86 716 l 980 0 l 955 0 l 81 699 l 81 0 l 65 0 l 65 1305 l 81 1305 l 81 732 l 955 1305 "},",":{"x_min":435,"x_max":697,"ha":1045,"o":"m 451 197 l 451 -83 l 588 -83 l 588 17 l 680 17 l 680 197 l 451 197 m 435 216 l 697 216 l 697 0 l 604 0 l 604 -100 l 435 -100 l 435 216 "},"d":{"x_min":65,"x_max":980,"ha":1045,"o":"m 65 0 l 65 1305 l 552 1305 l 980 869 l 980 434 l 554 0 l 65 0 m 963 863 l 546 1288 l 81 1288 l 81 17 l 548 17 l 963 440 l 963 863 "},"¨":{"x_min":0,"x_max":0,"ha":1361},"Ô":{"x_min":0,"x_max":0,"ha":1361},"E":{"x_min":65,"x_max":980.15625,"ha":1045,"o":"m 81 716 l 81 17 l 980 17 l 980 0 l 65 0 l 65 1305 l 980 1305 l 980 1288 l 81 1288 l 81 733 l 980 733 l 980 716 l 81 716 "},"Y":{"x_min":65.375,"x_max":980.546875,"ha":1046,"o":"m 958 1305 l 980 1305 l 528 716 l 528 0 l 512 0 l 512 716 l 65 1305 l 87 1305 l 519 738 l 958 1305 "},"\"":{"x_min":435,"x_max":697,"ha":1045,"o":"m 451 1285 l 451 1005 l 588 1005 l 588 1105 l 680 1105 l 680 1285 l 451 1285 m 435 1305 l 697 1305 l 697 1088 l 604 1088 l 604 988 l 435 988 l 435 1305 "},"‹":{"x_min":261.1875,"x_max":668.59375,"ha":1045,"o":"m 668 1038 l 280 724 l 668 408 l 649 408 l 261 724 l 649 1038 l 668 1038 "},"ê":{"x_min":0,"x_max":0,"ha":1361},"Ï":{"x_min":37,"x_max":1004.421875,"ha":1046,"o":"m 37 253 l 37 669 l 261 911 l 517 664 l 763 901 l 1004 652 l 860 415 l 996 238 l 628 35 l 252 35 l 37 253 m 264 55 l 627 55 l 966 242 l 835 417 l 977 646 l 762 869 l 518 632 l 264 879 l 64 654 l 64 257 l 264 55 "},"„":{"x_min":0,"x_max":0,"ha":1361},"Â":{"x_min":0,"x_max":0,"ha":1361},"Í":{"x_min":6.640625,"x_max":1019.5,"ha":1045,"o":"m 133 208 l 254 247 l 518 34 l 898 193 l 980 433 l 618 562 l 790 694 l 532 802 l 192 741 l 149 678 l 405 473 l 41 381 l 133 208 m 118 177 l 6 397 l 362 482 l 114 678 l 175 759 l 533 829 l 835 696 l 659 568 l 1019 441 l 915 178 l 514 6 l 239 222 l 118 177 "},"´":{"x_min":0,"x_max":0,"ha":1361},"ì":{"x_min":0,"x_max":0,"ha":1361},"±":{"x_min":65,"x_max":980,"ha":1045,"o":"m 514 716 l 65 716 l 65 732 l 514 732 l 514 1175 l 531 1175 l 531 732 l 980 732 l 980 716 l 531 716 l 531 241 l 514 241 l 514 716 m 65 99 l 980 99 l 980 83 l 65 83 l 65 99 "},"Ú":{"x_min":0,"x_max":0,"ha":1361},"|":{"x_min":261,"x_max":277.609375,"ha":522,"o":"m 277 1305 l 277 0 l 261 0 l 261 1305 l 277 1305 "},"§":{"x_min":0,"x_max":0,"ha":1361},"Ý":{"x_min":0,"x_max":0,"ha":1361},"b":{"x_min":65,"x_max":980,"ha":1045,"o":"m 65 0 l 65 1305 l 653 1305 l 980 972 l 980 849 l 857 724 l 980 600 l 980 333 l 653 0 l 65 0 m 846 716 l 81 716 l 81 17 l 650 17 l 963 336 l 963 597 l 846 716 m 81 733 l 846 733 l 963 852 l 963 969 l 650 1288 l 81 1288 l 81 733 "},"q":{"x_min":65,"x_max":980,"ha":1045,"o":"m 808 174 l 963 333 l 963 1288 l 81 1288 l 81 17 l 653 17 l 799 166 l 595 374 l 595 391 l 808 174 m 980 0 l 963 0 l 808 158 l 653 0 l 65 0 l 65 1305 l 980 1305 l 980 333 l 816 166 l 980 0 "},"Ö":{"x_min":65,"x_max":980,"ha":1045,"o":"m 65 0 l 65 1305 l 980 1305 l 980 0 l 65 0 m 963 17 l 963 1288 l 81 1288 l 81 17 l 963 17 m 731 1525 l 980 1525 l 980 1508 l 731 1508 l 731 1525 m 65 1525 l 314 1525 l 314 1508 l 65 1508 l 65 1525 "},"z":{"x_min":65,"x_max":980,"ha":1045,"o":"m 84 17 l 980 17 l 980 0 l 65 0 l 65 22 l 958 1288 l 65 1288 l 65 1305 l 980 1305 l 980 1288 l 84 17 "},"™":{"x_min":26,"x_max":810,"ha":1045,"o":"m 211 782 l 204 782 l 204 1298 l 26 1298 l 26 1305 l 392 1305 l 392 1298 l 211 1298 l 211 782 m 626 1068 l 451 1298 l 451 783 l 444 783 l 444 1305 l 451 1305 l 626 1075 l 803 1305 l 810 1305 l 810 783 l 803 783 l 803 1298 l 626 1068 "},"ã":{"x_min":0,"x_max":0,"ha":1361},"æ":{"x_min":0,"x_max":0,"ha":1361},"®":{"x_min":128,"x_max":914,"ha":1045,"o":"m 748 744 l 748 931 l 318 931 l 318 744 l 748 744 m 764 731 l 320 731 l 764 486 l 740 486 l 318 718 l 318 486 l 302 486 l 302 944 l 764 944 l 764 731 m 128 350 l 128 1054 l 522 1110 l 914 1054 l 914 350 l 522 297 l 128 350 m 898 364 l 898 1043 l 522 1095 l 144 1043 l 144 364 l 522 313 l 898 364 "},"É":{"x_min":21.5,"x_max":1019.109375,"ha":1045,"o":"m 485 272 l 88 272 l 88 245 l 379 245 l 485 272 m 54 145 l 177 21 l 888 21 l 993 184 l 777 230 l 729 315 l 54 145 m 21 152 l 319 229 l 72 229 l 72 289 l 537 289 l 741 340 l 797 243 l 1019 197 l 895 0 l 172 0 l 21 152 "},"~":{"x_min":0,"x_max":0,"ha":1361},"³":{"x_min":0,"x_max":0,"ha":1361},"¡":{"x_min":0,"x_max":0,"ha":1361},"[":{"x_min":196,"x_max":849.34375,"ha":1045,"o":"m 212 17 l 849 17 l 849 0 l 196 0 l 196 1305 l 849 1305 l 849 1288 l 212 1288 l 212 17 "},"L":{"x_min":65,"x_max":980.15625,"ha":1045,"o":"m 980 0 l 65 0 l 65 1305 l 81 1305 l 81 17 l 980 17 l 980 0 "}," ":{"x_min":0,"x_max":0,"ha":1045},"%":{"x_min":27,"x_max":1018,"ha":1045,"o":"m 27 808 l 27 1277 l 384 1277 l 384 808 l 27 808 m 32 1272 l 32 827 l 377 1272 l 32 1272 m 32 813 l 377 813 l 377 1256 l 32 813 m 661 28 l 661 497 l 1018 497 l 1018 28 l 661 28 m 668 492 l 668 47 l 1011 492 l 668 492 m 668 33 l 1011 33 l 1011 476 l 668 33 m 81 0 l 64 0 l 963 1305 l 979 1305 l 81 0 "},"P":{"x_min":65,"x_max":980,"ha":1045,"o":"m 963 733 l 963 1288 l 81 1288 l 81 733 l 963 733 m 81 0 l 65 0 l 65 1305 l 980 1305 l 980 716 l 81 716 l 81 0 "},"À":{"x_min":0,"x_max":0,"ha":1361},"_":{"x_min":65,"x_max":980,"ha":1045,"o":"m 65 17 l 980 17 l 980 0 l 65 0 l 65 17 "},"ñ":{"x_min":0,"x_max":0,"ha":1361},"+":{"x_min":65,"x_max":980,"ha":1045,"o":"m 514 716 l 65 716 l 65 732 l 514 732 l 514 1175 l 531 1175 l 531 732 l 980 732 l 980 716 l 531 716 l 531 241 l 514 241 l 514 716 "},"‚":{"x_min":0,"x_max":0,"ha":1361},"½":{"x_min":0,"x_max":0,"ha":1361},"Æ":{"x_min":8.265625,"x_max":1038.234375,"ha":1046,"o":"m 438 366 l 438 46 l 662 46 l 662 366 l 550 413 l 438 366 m 662 391 l 556 879 l 438 391 l 550 438 l 662 391 m 684 46 l 997 205 l 684 357 l 684 46 m 1038 205 l 662 5 l 438 5 l 8 205 l 417 382 l 556 972 l 684 382 l 1038 205 m 417 46 l 417 357 l 62 205 l 417 46 "},"Ë":{"x_min":18.859375,"x_max":930,"ha":1045,"o":"m 41 216 l 276 33 l 609 33 l 759 264 l 908 279 l 908 480 l 569 433 l 690 666 l 650 716 l 317 656 l 317 433 l 108 477 l 41 216 m 18 212 l 90 503 l 292 462 l 292 674 l 658 738 l 713 670 l 607 462 l 930 506 l 930 252 l 769 252 l 618 11 l 260 11 l 18 212 "},"'":{"x_min":435,"x_max":697,"ha":1045,"o":"m 451 1285 l 451 1005 l 588 1005 l 588 1105 l 680 1105 l 680 1285 l 451 1285 m 435 1305 l 697 1305 l 697 1088 l 604 1088 l 604 988 l 435 988 l 435 1305 "},"Š":{"x_min":0,"x_max":0,"ha":1361},"ª":{"x_min":0,"x_max":0,"ha":1361},"Œ":{"x_min":0,"x_max":0,"ha":1361},"ð":{"x_min":0,"x_max":0,"ha":1361},"T":{"x_min":65,"x_max":980,"ha":1045,"o":"m 528 0 l 511 0 l 511 1288 l 65 1288 l 65 1305 l 980 1305 l 980 1288 l 528 1288 l 528 0 "},"š":{"x_min":0,"x_max":0,"ha":1361},"Þ":{"x_min":0,"x_max":0,"ha":1361},"j":{"x_min":65.453125,"x_max":980.609375,"ha":1046,"o":"m 534 1288 l 534 1305 l 980 1305 l 980 0 l 494 0 l 65 437 l 87 437 l 498 17 l 964 17 l 964 1288 l 534 1288 "},"1":{"x_min":512,"x_max":528.609375,"ha":1046,"o":"m 528 1305 l 528 0 l 512 0 l 512 1305 l 528 1305 "},"›":{"x_min":261.1875,"x_max":668.59375,"ha":1045,"o":"m 261 1038 l 280 1038 l 668 724 l 280 408 l 261 408 l 649 724 l 261 1038 "},"ä":{"x_min":65,"x_max":980,"ha":1045,"o":"m 81 994 l 81 733 l 963 733 l 963 994 l 522 1289 l 81 994 m 980 0 l 963 0 l 963 716 l 81 716 l 81 0 l 65 0 l 65 1000 l 522 1305 l 980 1000 l 980 0 m 731 1525 l 980 1525 l 980 1508 l 731 1508 l 731 1525 m 65 1525 l 314 1525 l 314 1508 l 65 1508 l 65 1525 "},"<":{"x_min":503.765625,"x_max":980.296875,"ha":1045,"o":"m 958 0 l 503 716 l 958 1305 l 980 1305 l 528 716 l 980 0 l 958 0 "},"£":{"x_min":0,"x_max":0,"ha":1361},"¹":{"x_min":0,"x_max":0,"ha":1361},"t":{"x_min":65,"x_max":980,"ha":1045,"o":"m 528 0 l 511 0 l 511 1288 l 65 1288 l 65 1305 l 980 1305 l 980 1288 l 528 1288 l 528 0 "},"¬":{"x_min":0,"x_max":0,"ha":1361},"ù":{"x_min":0,"x_max":0,"ha":1361},"W":{"x_min":65,"x_max":980,"ha":1045,"o":"m 525 596 l 963 21 l 963 1304 l 980 1304 l 980 -1 l 963 -1 l 525 570 l 81 0 l 65 0 l 65 1305 l 81 1305 l 81 22 l 525 596 "},"ï":{"x_min":0,"x_max":0,"ha":1361},">":{"x_min":65.125,"x_max":533.671875,"ha":1045,"o":"m 65 0 l 511 716 l 65 1305 l 87 1305 l 533 716 l 87 0 l 65 0 "},"v":{"x_min":65.125,"x_max":980.296875,"ha":1045,"o":"m 958 1305 l 980 1305 l 528 0 l 511 0 l 65 1305 l 87 1305 l 519 25 l 958 1305 "},"û":{"x_min":0,"x_max":0,"ha":1361},"Ò":{"x_min":0,"x_max":0,"ha":1361},"&":{"x_min":54.5,"x_max":1016.84375,"ha":1045,"o":"m 148 704 l 379 533 l 291 255 l 521 428 l 754 255 l 665 533 l 897 704 l 610 704 l 521 981 l 433 704 l 148 704 m 54 733 l 410 733 l 521 1080 l 631 733 l 1016 733 l 701 519 l 811 172 l 521 387 l 232 172 l 342 519 l 54 733 "},"Ð":{"x_min":0,"x_max":0,"ha":1361},"I":{"x_min":65,"x_max":980,"ha":1045,"o":"m 528 1288 l 528 17 l 980 17 l 980 0 l 65 0 l 65 17 l 511 17 l 511 1288 l 65 1288 l 65 1305 l 980 1305 l 980 1288 l 528 1288 "},"ˉ":{"x_min":0,"x_max":0,"ha":1361},"G":{"x_min":65,"x_max":980,"ha":1045,"o":"m 980 1305 l 980 1132 l 963 1132 l 963 1288 l 81 1288 l 81 17 l 963 17 l 963 716 l 292 716 l 292 733 l 980 733 l 980 0 l 65 0 l 65 1305 l 980 1305 "},"`":{"x_min":435,"x_max":697,"ha":1045,"o":"m 451 1285 l 451 1005 l 588 1005 l 588 1105 l 680 1105 l 680 1285 l 451 1285 m 435 1305 l 697 1305 l 697 1088 l 604 1088 l 604 988 l 435 988 l 435 1305 "},"·":{"x_min":0,"x_max":0,"ha":1361},"r":{"x_min":65,"x_max":980,"ha":1045,"o":"m 963 733 l 963 1288 l 81 1288 l 81 733 l 963 733 m 980 716 l 86 716 l 980 0 l 955 0 l 81 697 l 81 0 l 65 0 l 65 1305 l 980 1305 l 980 716 "},"¿":{"x_min":0,"x_max":0,"ha":1361},"ý":{"x_min":0,"x_max":0,"ha":1361},"x":{"x_min":65.125,"x_max":980.296875,"ha":1045,"o":"m 958 0 l 519 696 l 87 0 l 65 0 q 152 139 93 44 l 455 625 q 511 716 509 710 l 65 1305 l 87 1305 l 519 735 l 958 1305 l 980 1305 l 528 716 l 980 0 l 958 0 "},"è":{"x_min":0,"x_max":0,"ha":1361},"º":{"x_min":0,"x_max":0,"ha":1361},"Ø":{"x_min":0,"x_max":0,"ha":1361},"μ":{"x_min":0,"x_max":0,"ha":1361},"÷":{"x_min":0,"x_max":0,"ha":1361},"h":{"x_min":65,"x_max":980,"ha":1045,"o":"m 980 1305 l 980 0 l 963 0 l 963 716 l 81 716 l 81 0 l 65 0 l 65 1305 l 81 1305 l 81 733 l 963 733 l 963 1305 l 980 1305 "},".":{"x_min":441,"x_max":697,"ha":1045,"o":"m 457 197 l 457 17 l 680 17 l 680 197 l 457 197 m 441 216 l 697 216 l 697 0 l 441 0 l 441 216 "},";":{"x_min":435,"x_max":697,"ha":1045,"o":"m 457 714 l 457 533 l 680 533 l 680 714 l 457 714 m 441 733 l 697 733 l 697 516 l 441 516 l 441 733 m 451 197 l 451 -83 l 588 -83 l 588 17 l 680 17 l 680 197 l 451 197 m 435 216 l 697 216 l 697 0 l 604 0 l 604 -100 l 435 -100 l 435 216 "},"f":{"x_min":65,"x_max":980.15625,"ha":1045,"o":"m 65 0 l 65 1305 l 980 1305 l 980 1288 l 81 1288 l 81 733 l 980 733 l 980 716 l 81 716 l 81 0 l 65 0 "},"“":{"x_min":0,"x_max":0,"ha":1361},"A":{"x_min":65,"x_max":980,"ha":1045,"o":"m 81 994 l 81 733 l 963 733 l 963 994 l 522 1288 l 81 994 m 980 0 l 963 0 l 963 716 l 81 716 l 81 0 l 65 0 l 65 1000 l 522 1305 l 980 1000 l 980 0 "},"6":{"x_min":65,"x_max":980,"ha":1045,"o":"m 81 716 l 81 17 l 963 17 l 963 716 l 81 716 m 81 733 l 980 733 l 980 0 l 65 0 l 65 1305 l 81 1305 l 81 733 "},"‘":{"x_min":0,"x_max":0,"ha":1361},"O":{"x_min":65,"x_max":980,"ha":1045,"o":"m 65 0 l 65 1305 l 980 1305 l 980 0 l 65 0 m 963 17 l 963 1288 l 81 1288 l 81 17 l 963 17 "},"n":{"x_min":65,"x_max":980,"ha":1045,"o":"m 980 1305 l 980 0 l 963 0 l 963 66 l 81 1221 l 81 0 l 65 0 l 65 1305 l 81 1305 l 81 1243 l 963 88 l 963 1305 l 980 1305 "},"3":{"x_min":65.453125,"x_max":980.609375,"ha":1046,"o":"m 964 733 l 964 1288 l 65 1288 l 65 1305 l 980 1305 l 980 0 l 65 0 l 65 17 l 964 17 l 964 716 l 65 716 l 65 733 l 964 733 "},"9":{"x_min":65,"x_max":980,"ha":1045,"o":"m 81 1288 l 81 733 l 963 733 l 963 1288 l 81 1288 m 65 1305 l 980 1305 l 980 0 l 963 0 l 963 716 l 65 716 l 65 1305 "},"l":{"x_min":65,"x_max":980.15625,"ha":1045,"o":"m 980 0 l 65 0 l 65 1305 l 81 1305 l 81 17 l 980 17 l 980 0 "},"¤":{"x_min":0,"x_max":0,"ha":1361},"4":{"x_min":65,"x_max":980,"ha":1045,"o":"m 980 1305 l 980 0 l 963 0 l 963 716 l 65 716 l 65 1305 l 81 1305 l 81 733 l 963 733 l 963 1305 l 980 1305 "},"p":{"x_min":65,"x_max":980,"ha":1045,"o":"m 963 733 l 963 1288 l 81 1288 l 81 733 l 963 733 m 81 0 l 65 0 l 65 1305 l 980 1305 l 980 716 l 81 716 l 81 0 "},"‡":{"x_min":0,"x_max":0,"ha":1361},"à":{"x_min":0,"x_max":0,"ha":1361},"Ü":{"x_min":65,"x_max":980,"ha":1045,"o":"m 963 1305 l 980 1305 l 980 0 l 65 0 l 65 1305 l 81 1305 l 81 17 l 963 17 l 963 1305 m 731 1525 l 980 1525 l 980 1508 l 731 1508 l 731 1525 m 65 1525 l 314 1525 l 314 1508 l 65 1508 l 65 1525 "},"ó":{"x_min":0,"x_max":0,"ha":1361}}}
